<svg version="1.1" xmlns="http://www.w3.org/2000/svg" xmlns:xlink="http://www.w3.org/1999/xlink" width="364" height="308"><defs><linearGradient id="kqIbVXBVmeEZ" x1="0px" x2="32px" y1="0px" y2="0px" gradientUnits="userSpaceOnUse"><stop offset="0" stop-color="#02fc02"/><stop offset="1" stop-color="#01fd01"/></linearGradient><linearGradient id="vGXTkucZxlEM" x1="0px" x2="32px" y1="0px" y2="0px" gradientUnits="userSpaceOnUse"><stop offset="0" stop-color="#807f7f"/><stop offset="1" stop-color="#807f7f"/></linearGradient></defs><g><rect fill="#000000" stroke="none" x="0" y="0" width="364" height="308"/><g transform="scale(1,1) translate(-74,2)"><path fill="none" stroke="#807f7f" paint-order="fill stroke markers" d=" M 304 192 L 304 256" stroke-linecap="round" stroke-miterlimit="10" stroke-width="3" stroke-dasharray=""/><path fill="none" stroke="#807f7f" paint-order="fill stroke markers" d=" M 314 256 L 294 256" stroke-linecap="round" stroke-miterlimit="10" stroke-width="3" stroke-dasharray=""/><path fill="none" stroke="#807f7f" paint-order="fill stroke markers" d=" M 310 261 L 298 261" stroke-linecap="round" stroke-miterlimit="10" stroke-width="3" stroke-dasharray=""/><path fill="none" stroke="#807f7f" paint-order="fill stroke markers" d=" M 306 266 L 302 266" stroke-linecap="round" stroke-miterlimit="10" stroke-width="3" stroke-dasharray=""/><path fill="none" stroke="#02fc02" paint-order="fill stroke markers" d=" M 304 160 L 291 170" stroke-linecap="round" stroke-miterlimit="10" stroke-width="3" stroke-dasharray=""/><path fill="none" stroke="#807f7f" paint-order="fill stroke markers" d=" M 304 192 L 291 182" stroke-linecap="round" stroke-miterlimit="10" stroke-width="3" stroke-dasharray=""/><path fill="#c0c0c0" stroke="none" paint-order="stroke fill markers" d=" M 304 192 L 300 184 L 295 190 Z"/><path fill="none" stroke="#807f7f" paint-order="fill stroke markers" d=" M 256 176 L 288 176" stroke-linecap="round" stroke-miterlimit="10" stroke-width="3" stroke-dasharray=""/><path fill="#807f7f" stroke="none" paint-order="stroke fill markers" d=" M 288 160 L 291 160 L 291 192 L 288 192 Z"/><path fill="none" stroke="#02fc02" paint-order="fill stroke markers" d=" M 304 160 L 304 144" stroke-linecap="round" stroke-miterlimit="10" stroke-width="3" stroke-dasharray=""/><path fill="none" stroke="#01fd01" paint-order="fill stroke markers" d=" M 304 112 L 304 96" stroke-linecap="round" stroke-miterlimit="10" stroke-width="3" stroke-dasharray=""/><g transform="matrix(0,-1,1,0,304,144)"><rect fill="none" stroke="url(#kqIbVXBVmeEZ)" x="0" y="-6" width="32" height="12" stroke-linecap="round" stroke-miterlimit="10" stroke-width="3" stroke-dasharray=""/></g><text fill="#ffffff" stroke="none" font-family="sans-serif" font-size="12px" font-style="normal" font-weight="normal" text-decoration="normal" x="314" y="134" text-anchor="start" dominant-baseline="alphabetic">1k</text><path fill="none" stroke="#807f7f" paint-order="fill stroke markers" d=" M 256 176 L 232 176" stroke-linecap="round" stroke-miterlimit="10" stroke-width="3" stroke-dasharray=""/><path fill="none" stroke="#807f7f" paint-order="fill stroke markers" d=" M 200 176 L 176 176" stroke-linecap="round" stroke-miterlimit="10" stroke-width="3" stroke-dasharray=""/><g transform="matrix(-1,0,0,-1,232,176)"><rect fill="none" stroke="url(#vGXTkucZxlEM)" x="0" y="-6" width="32" height="12" stroke-linecap="round" stroke-miterlimit="10" stroke-width="3" stroke-dasharray=""/></g><text fill="#ffffff" stroke="none" font-family="sans-serif" font-size="12px" font-style="normal" font-weight="normal" text-decoration="normal" x="209" y="166" text-anchor="start" dominant-baseline="alphabetic">1k</text><g><g><text fill="#ffffff" stroke="none" font-family="sans-serif" font-size="20px" font-style="normal" font-weight="bold" text-decoration="normal" x="144" y="176" text-anchor="middle" dominant-baseline="central">L</text></g><path fill="none" stroke="#807f7f" paint-order="fill stroke markers" d=" M 176 176 L 156 176" stroke-linecap="round" stroke-miterlimit="10" stroke-width="3" stroke-dasharray=""/></g><g><g><text fill="#c0c0c0" stroke="none" font-family="sans-serif" font-size="20px" font-style="normal" font-weight="bold" text-decoration="normal" x="368" y="160" text-anchor="middle" dominant-baseline="central">H</text></g><path fill="none" stroke="#02fc02" paint-order="fill stroke markers" d=" M 304 160 L 356 160" stroke-linecap="round" stroke-miterlimit="10" stroke-width="3" stroke-dasharray=""/></g><path fill="none" stroke="#01fd01" paint-order="fill stroke markers" d=" M 304 96 L 304 65" stroke-linecap="round" stroke-miterlimit="10" stroke-width="3" stroke-dasharray=""/><g><text fill="#ffffff" stroke="none" font-family="sans-serif" font-size="12px" font-style="normal" font-weight="normal" text-decoration="normal" x="292" y="45" text-anchor="start" dominant-baseline="central">+5V</text></g><path fill="#ffffff" stroke="none" paint-order="stroke fill markers" d=" M 307 160 A 3 3 0 1 1 306.99999999995777 159.99998407846124 Z"/></g></g></svg>